<svg xmlns="http://www.w3.org/2000/svg" width="16.562" height="16.031" viewBox="0 0 16.562 16.031">
  <path id="G_Icon_copy" data-name="G+ Icon copy" d="M977.678,66.959c0-2.7,1.979-3.574,4.83-3.574.311,0,.6-.008.89-.008a1.637,1.637,0,0,1-.7-1.233,1.936,1.936,0,0,1,.26-.922c-.155.009-.313.019-.476.019a3.462,3.462,0,0,1-3.706-3.577c0-1.948,2.076-3.694,4.566-3.694h4.908l-1.1,1.085H985.86a2.954,2.954,0,0,1,1.392,2.676,3.191,3.191,0,0,1-1.449,2.528c-.829.625-.986.886-.986,1.417,0,.453.989,1.127,1.445,1.456,1.585,1.147,1.884,1.868,1.906,3.3.029,1.9-2,3.567-5.25,3.567C980.068,70,977.678,68.748,977.678,66.959Zm1.994-.421c0,1.262,1.338,2.29,3.19,2.29,2.6,0,3.512-.963,3.512-2.227a1.2,1.2,0,0,0-.059-.445c-.628-1.515-2.652-1.515-3.327-1.515C981.173,64.642,979.673,65.3,979.673,66.538Zm1.089-8.774a2.939,2.939,0,0,0,2.666,2.682c1.255.035,1.976-.939,1.76-2.523s-1.033-2.772-2.289-2.809h-.058A2.19,2.19,0,0,0,980.762,57.764ZM991.1,59V57.015H989.06v-1H991.1V53.97h1.075v2.042h2.07v1h-2.07V59Z" transform="translate(-977.678 -53.969)" fill="#fff"/>
</svg>
