<svg xmlns="http://www.w3.org/2000/svg" width="16.629" height="16.061" viewBox="0 0 16.629 16.061">
  <path id="Login_Icon" data-name="Login Icon" d="M1055.192,69.03h-14.5A1.049,1.049,0,0,1,1039.629,68V67.4c0-.87,1.066-1.031,1.066-1.031l5.537-2.655a6.865,6.865,0,0,1-2.341-4.563V56.578c0-1.708,1.909-3.609,4.263-3.609a3.888,3.888,0,0,1,3.971,3.609v2.578a6.621,6.621,0,0,1-2.32,4.573l5.388,2.645s1.066.177,1.066,1.031V68A1.049,1.049,0,0,1,1055.192,69.03Z" transform="translate(-1039.629 -52.969)" fill="#fff"/>
</svg>
