<svg xmlns="http://www.w3.org/2000/svg" width="17.884" height="16.003" viewBox="0 0 17.884 16.003">
  <path id="Share_icon" data-name="Share icon" d="M537.077,883.988A1.076,1.076,0,0,1,536,882.92v-10.9a1.076,1.076,0,0,1,1.081-1.068h5.512a9.331,9.331,0,0,0-2.03,2.021h-2.175a.359.359,0,0,0-.361.356v8.327a.359.359,0,0,0,.361.356h12.245a.359.359,0,0,0,.361-.356V877.02l2-1.336v7.235a1.076,1.076,0,0,1-1.081,1.068ZM540.3,879.8h0Zm-.051,0h0Zm0,0Zm-.3-.344a8.584,8.584,0,0,1,2.118-6.075,6.669,6.669,0,0,1,4.949-2.356v-2.686a.355.355,0,0,1,.2-.319.364.364,0,0,1,.38.039l6.147,4.609a.352.352,0,0,1,0,.562l-6.147,4.609a.363.363,0,0,1-.38.04.357.357,0,0,1-.2-.32V874.82c-6.507.159-6.224,4.459-6.239,4.653-.014.176-.306.314-.5.327A.358.358,0,0,1,539.945,879.458Z" transform="translate(-535.996 -867.985)" fill="#049372"/>
</svg>
