<svg xmlns="http://www.w3.org/2000/svg" width="16.557" height="12.997" viewBox="0 0 16.557 12.997">
  <path id="Twitter_Icon" data-name="Twitter Icon" d="M960.157,56.547a6.978,6.978,0,0,1-1.951.517A3.317,3.317,0,0,0,959.7,55.25a6.984,6.984,0,0,1-2.157.8,3.447,3.447,0,0,0-2.479-1.037,3.341,3.341,0,0,0-3.4,3.282,3.19,3.19,0,0,0,.088.748,9.767,9.767,0,0,1-7-3.428,3.176,3.176,0,0,0-.46,1.648A3.251,3.251,0,0,0,945.8,59.99a3.47,3.47,0,0,1-1.539-.411c0,.014,0,.027,0,.042a3.314,3.314,0,0,0,2.725,3.217,3.547,3.547,0,0,1-1.534.056,3.385,3.385,0,0,0,3.173,2.278,7.028,7.028,0,0,1-5.029,1.358,9.858,9.858,0,0,0,5.207,1.475,9.428,9.428,0,0,0,9.665-9.335c0-.142,0-.284-.009-.425A6.778,6.778,0,0,0,960.157,56.547Z" transform="translate(-943.599 -55.009)" fill="#fff"/>
</svg>
