<svg xmlns="http://www.w3.org/2000/svg" width="22.308" height="13.944" viewBox="0 0 22.308 13.944">
  <path id="Views_icon" data-name="Views icon" d="M683.474,877.371a.688.688,0,0,1,0-.765c2.781-4.187,6.8-6.59,11.039-6.59s8.258,2.4,11.038,6.59a.688.688,0,0,1,0,.765c-2.778,4.187-6.8,6.589-11.038,6.589S686.255,881.558,683.474,877.371Zm6.453-.368A5.037,5.037,0,1,0,694.965,872,5.028,5.028,0,0,0,689.927,877Zm2.073.007a3.01,3.01,0,1,1,3.01,3.01A3.01,3.01,0,0,1,692,877.01Z" transform="translate(-683.358 -870.017)" fill="#049372"/>
</svg>
